<?xml version="1.0" standalone="no"?>
<!DOCTYPE svg PUBLIC "-//W3C//DTD SVG 20010904//EN"
 "http://www.w3.org/TR/2001/REC-SVG-20010904/DTD/svg10.dtd">
<svg version="1.0" xmlns="http://www.w3.org/2000/svg"
 width="1024.000000pt" height="1024.000000pt" viewBox="0 0 1024.000000 1024.000000"
 preserveAspectRatio="xMidYMid meet">
<metadata>
Created by potrace 1.11, written by Peter Selinger 2001-2013
</metadata>
<g transform="translate(0.000000,1024.000000) scale(0.100000,-0.100000)"
fill="#000000" stroke="none">
<path d="M5078 10190 c-7 -3 -35 -28 -62 -57 -131 -142 -463 -282 -1039 -439
-343 -94 -466 -144 -643 -262 -83 -56 -187 -149 -243 -216 -62 -76 -123 -189
-155 -289 -5 -14 -12 -17 -38 -12 -263 49 -489 -5 -797 -190 -79 -48 -200
-155 -411 -362 -102 -100 -196 -191 -210 -203 -14 -12 -41 -36 -60 -53 -19
-18 -71 -61 -115 -97 -44 -36 -85 -70 -91 -76 -6 -5 -56 -40 -110 -76 -153
-103 -269 -155 -337 -150 -11 0 -28 -17 -46 -50 l-29 -50 18 -42 c31 -70 39
-193 26 -368 -9 -105 -52 -366 -79 -473 -3 -11 -13 -51 -22 -90 -22 -92 -24
-102 -30 -122 -103 -380 -118 -466 -119 -673 -1 -173 10 -249 50 -376 37 -118
101 -231 172 -306 31 -33 34 -40 21 -50 -26 -22 -84 -101 -120 -163 -41 -70
-91 -210 -110 -310 -15 -75 -18 -325 -6 -415 4 -30 10 -73 13 -95 3 -22 32
-141 64 -265 84 -322 117 -470 134 -585 4 -22 11 -65 16 -95 35 -200 28 -437
-15 -519 -13 -26 -12 -31 21 -80 19 -28 39 -49 44 -46 16 10 161 -46 239 -92
202 -119 363 -254 711 -596 96 -95 209 -199 250 -233 307 -248 612 -344 921
-290 l36 7 34 -83 c72 -181 197 -325 392 -453 153 -99 315 -166 572 -235 313
-85 511 -147 673 -211 101 -40 302 -140 302 -151 0 -4 7 -8 15 -8 18 0 145
-118 145 -134 0 -19 112 -9 128 12 114 154 442 304 1006 458 314 86 398 114
531 179 304 149 498 352 579 608 5 15 13 17 48 12 24 -3 52 -9 62 -12 25 -7
149 -6 217 2 170 20 404 122 579 254 58 43 166 138 240 210 275 269 342 331
462 431 155 129 138 116 238 182 143 94 237 136 323 143 11 1 30 22 47 51 26
47 27 50 12 84 -28 63 -32 98 -33 253 0 70 2 131 5 135 2 4 7 35 10 69 6 62
35 236 55 323 5 25 12 56 14 70 3 14 13 54 22 90 9 36 19 72 21 80 2 8 22 85
44 170 73 272 85 357 84 570 -1 208 -36 356 -120 509 -34 62 -93 144 -122 168
-11 9 -5 22 40 75 85 101 165 274 183 400 4 24 10 63 15 86 8 43 5 322 -4 372
-2 14 -7 40 -10 58 -3 17 -8 44 -11 60 -4 26 -18 78 -99 395 -20 76 -38 148
-41 160 -14 63 -54 278 -60 321 -3 27 -8 52 -9 55 -7 12 -18 187 -17 266 2
121 18 210 44 243 7 9 7 16 1 20 -6 4 -20 24 -33 45 -12 20 -26 37 -29 38 -66
7 -164 44 -241 90 -34 22 -67 39 -72 39 -5 0 -9 5 -9 10 0 6 -6 10 -12 10 -7
0 -26 11 -43 24 -16 14 -78 63 -138 111 -160 128 -140 109 -441 402 -327 319
-517 446 -768 512 -117 31 -265 43 -343 27 -11 -2 -38 -7 -61 -10 l-41 -7 -37
91 c-71 170 -195 313 -376 435 -181 121 -316 174 -727 284 -379 102 -692 225
-858 337 -66 45 -75 53 -109 94 -22 27 -38 36 -72 40 -23 3 -49 3 -56 0z"/>
</g>
</svg>
